<svg width="249" height="311" viewBox="0 0 249 311" fill="none" xmlns="http://www.w3.org/2000/svg">
    <path fill-rule="evenodd" clip-rule="evenodd" d="M64.235 52.75C56.941 81.763 45.336 127.775 38.447 155C9.905 267.801 0 307.4 0 308.711C0 309.774 1.449 310.026 6.25 309.798L12.5 309.5L21.504 274C26.456 254.475 30.87 237.938 31.313 237.25C31.94 236.276 43.639 236.003 84.309 236.015C113.014 236.024 137.042 236.375 137.705 236.796C138.368 237.218 140.47 243.623 142.376 251.031C144.283 258.439 147.928 272.6 150.477 282.5C153.026 292.4 155.797 302.637 156.636 305.25L158.161 310H164.08C171.204 310 171.068 310.709 166.952 295C164.071 284.001 157.027 256.732 144.007 206.17C140.703 193.338 138 182.201 138 181.42C138 180.235 141.77 180 160.776 180C185.852 180 197.175 178.992 207 175.885C229.686 168.712 242.295 154.21 247.428 129.387C248.659 123.437 249 115.101 249 91.003C249 54.196 247.887 46.331 240.577 31.5C232.795 15.712 221.046 6.572 202.61 1.965C195.241 0.123 191.065 0 136.123 0H77.499L64.235 52.75ZM199.825 14.521C218.722 18.976 229.859 31.155 234.596 52.546C236.074 59.218 236.353 65.498 236.328 91.5C236.301 119.745 236.114 123.18 234.215 130.154C228.896 149.69 219.173 159.511 200 164.712C194.476 166.21 189.012 166.477 163.617 166.488L133.735 166.5L130.368 153.5C128.516 146.35 122.018 120.925 115.927 97C109.837 73.075 102.637 44.825 99.927 34.223C97.217 23.62 95 14.508 95 13.973C95 13.355 112.989 13.005 144.25 13.015C184.363 13.027 194.673 13.306 199.825 14.521ZM85.525 35.261C85.898 37.043 87.908 44.8 89.992 52.5C92.076 60.2 98.363 83.825 103.963 105C109.563 126.175 116.145 150.925 118.589 160C127.646 193.634 134.679 221.522 134.286 222.25C133.75 223.244 35 223.223 35 222.229C35 221.805 37.89 209.993 41.422 195.979C44.954 181.966 55.546 139.9 64.959 102.5C74.372 65.1 82.315 33.706 82.609 32.735C83.361 30.257 84.723 31.437 85.525 35.261Z" fill="black"/>
</svg>
