<svg width="257" height="319" viewBox="0 0 257 319" fill="none" xmlns="http://www.w3.org/2000/svg">
<g filter="url(#filter0_d)">
<path fill-rule="evenodd" clip-rule="evenodd" d="M68.235 52.75C60.941 81.763 49.336 127.775 42.447 155C13.905 267.801 4 307.4 4 308.711C4 309.774 5.449 310.026 10.25 309.798L16.5 309.5L25.504 274C30.456 254.475 34.87 237.938 35.313 237.25C35.94 236.276 47.639 236.003 88.309 236.015C117.014 236.024 141.042 236.375 141.705 236.796C142.368 237.218 144.47 243.623 146.376 251.031C148.283 258.439 151.928 272.6 154.477 282.5C157.026 292.4 159.797 302.637 160.636 305.25L162.161 310H168.08C175.204 310 175.068 310.709 170.952 295C168.071 284.001 161.027 256.732 148.007 206.17C144.703 193.338 142 182.201 142 181.42C142 180.235 145.77 180 164.776 180C189.852 180 201.175 178.992 211 175.885C233.686 168.712 246.295 154.21 251.428 129.387C252.659 123.437 253 115.101 253 91.003C253 54.196 251.887 46.331 244.577 31.5C236.795 15.712 225.046 6.572 206.61 1.965C199.241 0.123 195.065 0 140.123 0H81.499L68.235 52.75ZM203.825 14.521C222.722 18.976 233.859 31.155 238.596 52.546C240.074 59.218 240.353 65.498 240.328 91.5C240.301 119.745 240.114 123.18 238.215 130.154C232.896 149.69 223.173 159.511 204 164.712C198.476 166.21 193.012 166.477 167.617 166.488L137.735 166.5L134.368 153.5C132.516 146.35 126.018 120.925 119.927 97C113.837 73.075 106.637 44.825 103.927 34.223C101.217 23.62 99 14.508 99 13.973C99 13.355 116.989 13.005 148.25 13.015C188.363 13.027 198.673 13.306 203.825 14.521ZM89.525 35.261C89.898 37.043 91.908 44.8 93.992 52.5C96.076 60.2 102.363 83.825 107.963 105C113.563 126.175 120.145 150.925 122.589 160C131.646 193.634 138.679 221.522 138.286 222.25C137.75 223.244 39 223.223 39 222.229C39 221.805 41.89 209.993 45.422 195.979C48.954 181.966 59.546 139.9 68.959 102.5C78.372 65.1 86.315 33.706 86.609 32.735C87.361 30.257 88.723 31.437 89.525 35.261Z" fill="white"/>
</g>
<defs>
<filter id="filter0_d" x="0" y="0" width="257" height="318.005" filterUnits="userSpaceOnUse" color-interpolation-filters="sRGB">
<feFlood flood-opacity="0" result="BackgroundImageFix"/>
<feColorMatrix in="SourceAlpha" type="matrix" values="0 0 0 0 0 0 0 0 0 0 0 0 0 0 0 0 0 0 127 0"/>
<feOffset dy="4"/>
<feGaussianBlur stdDeviation="2"/>
<feColorMatrix type="matrix" values="0 0 0 0 0 0 0 0 0 0 0 0 0 0 0 0 0 0 0.25 0"/>
<feBlend mode="normal" in2="BackgroundImageFix" result="effect1_dropShadow"/>
<feBlend mode="normal" in="SourceGraphic" in2="effect1_dropShadow" result="shape"/>
</filter>
</defs>
</svg>
